<svg xmlns="http://www.w3.org/2000/svg" xmlns:xlink="http://www.w3.org/1999/xlink" width="9.31" height="25.307" viewBox="0 0 9.31 25.307">
  <defs>
    <clipPath id="clip-path">
      <rect id="Rectangle_53" data-name="Rectangle 53" width="9.31" height="25.307" fill="#dd7f32"/>
    </clipPath>
  </defs>
  <g id="Bottle" transform="translate(0 0)">
    <g id="Group_28" data-name="Group 28" transform="translate(0 0)" clip-path="url(#clip-path)">
      <path id="Path_36" data-name="Path 36" d="M9.31,14.714A9.6,9.6,0,0,0,7.918,9.738,8.534,8.534,0,0,1,6.688,5.324V.239A.239.239,0,0,0,6.449,0H2.593a.239.239,0,0,0-.239.239v5.3a8.56,8.56,0,0,1-1.043,4.12L1.177,9.9A9.631,9.631,0,0,0,0,14.526V25.068a.239.239,0,0,0,.239.239H9.07a.239.239,0,0,0,.239-.239ZM8,21.83H5.269a.239.239,0,0,1-.239-.239V15.3a.239.239,0,0,1,.239-.239H8a.239.239,0,0,1,.239.239v6.29A.239.239,0,0,1,8,21.83M5.645,1.309V2.944a.239.239,0,0,1-.239.239H3.663a.239.239,0,0,1-.239-.239V1.309a.239.239,0,0,1,.239-.239H5.405a.239.239,0,0,1,.239.239M1.309,24.237A.239.239,0,0,1,1.07,24V14.5a8.56,8.56,0,0,1,1.043-4.12l.134-.241A9.631,9.631,0,0,0,3.424,5.511V4.493a.239.239,0,0,1,.239-.239H5.379a.239.239,0,0,1,.239.239v.831A9.6,9.6,0,0,0,7.009,10.3a8.535,8.535,0,0,1,1.177,3.425.239.239,0,0,1-.238.267H4.2a.239.239,0,0,0-.239.239v8.4a.239.239,0,0,0,.239.239H8a.239.239,0,0,1,.239.239V24A.239.239,0,0,1,8,24.237Z" transform="translate(0)" fill="#dd7f32"/>
    </g>
  </g>
</svg>
