<svg xmlns="http://www.w3.org/2000/svg" xmlns:xlink="http://www.w3.org/1999/xlink" width="31.344" height="30.089" viewBox="0 0 31.344 30.089">
  <defs>
    <clipPath id="clip-path">
      <rect id="Rectangle_113" data-name="Rectangle 113" width="31.344" height="30.089" fill="#dd7f32" stroke="#dd7f32" stroke-width="0.5"/>
    </clipPath>
  </defs>
  <g id="Group_66" data-name="Group 66" clip-path="url(#clip-path)">
    <path id="Path_1028" data-name="Path 1028" d="M31.344,7.728a4.782,4.782,0,0,0-4.327-4.789,4.8,4.8,0,0,0-8.852,0,4.782,4.782,0,0,0-4.327,4.789,4.878,4.878,0,0,0,1.519,3.5,4.651,4.651,0,0,0-.165,1.156,4.828,4.828,0,0,0,4.822,4.822h.628l-.3,6.672a3.322,3.322,0,0,0-1.783-.529h-.5a3.292,3.292,0,0,0,.958-2.345,3.383,3.383,0,0,0-3.369-3.369H6.143a3.363,3.363,0,0,0-2.411,5.714H3.369a3.369,3.369,0,1,0,0,6.738H18.562a3.406,3.406,0,0,0,1.883-.561c.033.033.066.1.1.132a1.432,1.432,0,0,0,.991.429h2.147a1.411,1.411,0,0,0,1.387-1.453l-.5-11.494H25.2a4.828,4.828,0,0,0,4.822-4.822,4.884,4.884,0,0,0-.165-1.156,4.717,4.717,0,0,0,1.486-3.435ZM8.588,18.661h7.068a2.345,2.345,0,1,1,0,4.69H8.588a3.35,3.35,0,0,0,0-4.69Zm-2.444,0A2.345,2.345,0,1,1,3.8,21.006a2.354,2.354,0,0,1,2.345-2.345m-2.807,10.4a2.345,2.345,0,1,1,2.345-2.345,2.354,2.354,0,0,1-2.345,2.345m2.444,0A3.615,3.615,0,0,0,6.21,28.5a3.6,3.6,0,0,0,.429.561Zm.429-4.128a3.6,3.6,0,0,0-.429-.561h.859a3.591,3.591,0,0,0-.429.561Zm2.873,4.128a2.345,2.345,0,1,1,2.345-2.345,2.354,2.354,0,0,1-2.345,2.345m2.444,0a3.292,3.292,0,0,0,.958-2.345,3.351,3.351,0,0,0-.958-2.345h7.035a2.345,2.345,0,0,1,0,4.69ZM24.012,28.7a.339.339,0,0,1-.33.33H21.534a.3.3,0,0,1-.231-.1c-.033-.033-.033-.1-.066-.165a3.252,3.252,0,0,0,.727-2.081,3.546,3.546,0,0,0-.594-1.916l.33-7.629h1.817Zm1.156-12.551H20.015a3.8,3.8,0,0,1-3.8-3.8,3.867,3.867,0,0,1,.2-1.156.52.52,0,0,0-.165-.561,3.727,3.727,0,0,1-1.387-2.907,3.765,3.765,0,0,1,3.666-3.765.459.459,0,0,0,.462-.363,3.773,3.773,0,0,1,7.134,0,.585.585,0,0,0,.462.363,3.765,3.765,0,0,1,3.666,3.765,3.727,3.727,0,0,1-1.387,2.907.52.52,0,0,0-.165.561,3.864,3.864,0,0,1,.2,1.156,3.723,3.723,0,0,1-3.732,3.8Z" fill="#dd7f32" stroke="#dd7f32" stroke-width="0.5"/>
    <path id="Path_1029" data-name="Path 1029" d="M442.372,93.519a.538.538,0,0,0-.529.5.516.516,0,0,0,.5.529,1.193,1.193,0,0,1,1.156,1.156,1.214,1.214,0,0,1-.429.892.493.493,0,0,0-.066.727.516.516,0,0,0,.4.2.424.424,0,0,0,.33-.132,2.208,2.208,0,0,0,.826-1.718,2.287,2.287,0,0,0-2.18-2.147Z" transform="translate(-415.784 -88.003)" fill="#dd7f32" stroke="#dd7f32" stroke-width="0.5"/>
    <path id="Path_1030" data-name="Path 1030" d="M192.613,332.574h2.18a.529.529,0,1,0,0-1.057h-2.18a.522.522,0,0,0-.529.528.567.567,0,0,0,.529.529" transform="translate(-180.755 -311.965)" fill="#dd7f32" stroke="#dd7f32" stroke-width="0.5"/>
    <path id="Path_1031" data-name="Path 1031" d="M255.893,332.574h.2a.529.529,0,1,0,0-1.057h-.2a.529.529,0,1,0,0,1.057" transform="translate(-240.303 -311.965)" fill="#dd7f32" stroke="#dd7f32" stroke-width="0.5"/>
    <path id="Path_1032" data-name="Path 1032" d="M81.092,332.939a.522.522,0,0,0,.529-.529.382.382,0,0,1,.4-.4.528.528,0,1,0,0-1.057,1.431,1.431,0,0,0-1.42,1.42A.488.488,0,0,0,81.092,332.939Z" transform="translate(-75.84 -311.438)" fill="#dd7f32" stroke="#dd7f32" stroke-width="0.5"/>
    <path id="Path_1033" data-name="Path 1033" d="M244.631,428.959h-2.18a.529.529,0,0,0,0,1.057h2.18a.528.528,0,1,0,0-1.057" transform="translate(-227.655 -403.66)" fill="#dd7f32" stroke="#dd7f32" stroke-width="0.5"/>
    <path id="Path_1034" data-name="Path 1034" d="M305.372,428.959h-.2a.529.529,0,0,0,0,1.057h.2a.529.529,0,1,0,0-1.057" transform="translate(-286.678 -403.66)" fill="#dd7f32" stroke="#dd7f32" stroke-width="0.5"/>
    <path id="Path_1035" data-name="Path 1035" d="M131.346,428.959a1.431,1.431,0,0,0-1.42,1.42.529.529,0,1,0,1.057,0,.381.381,0,0,1,.4-.4.522.522,0,0,0,.529-.528A.571.571,0,0,0,131.346,428.959Z" transform="translate(-122.263 -403.66)" fill="#dd7f32" stroke="#dd7f32" stroke-width="0.5"/>
    <path id="Path_1036" data-name="Path 1036" d="M33.906,428.959a1.431,1.431,0,0,0-1.42,1.42.529.529,0,1,0,1.057,0,.381.381,0,0,1,.4-.4.522.522,0,0,0,.528-.528A.571.571,0,0,0,33.906,428.959Z" transform="translate(-30.57 -403.66)" fill="#dd7f32" stroke="#dd7f32" stroke-width="0.5"/>
  </g>
</svg>
