<svg xmlns="http://www.w3.org/2000/svg" width="14.483" height="23.333" viewBox="0 0 14.483 23.333">
  <g id="geo" transform="translate(0 0)">
    <path id="Path_33" data-name="Path 33" d="M20.906,7.078A4.828,4.828,0,1,1,16.078,2.25a4.828,4.828,0,0,1,4.828,4.828Z" transform="translate(-8.835 -2.25)" fill="#dd7f32"/>
    <path id="Path_34" data-name="Path 34" d="M16.875,9h1.609V23.483a.8.8,0,0,1-1.609,0Z" transform="translate(-10.437 -4.172)" fill="#dd7f32"/>
    <path id="Path_35" data-name="Path 35" d="M12.685,26.96a.8.8,0,0,1-.617.956,6.606,6.606,0,0,0-2.069.76c-.486.309-.515.516-.515.546s.008.137.235.338a3.656,3.656,0,0,0,1.128.615,12.656,12.656,0,0,0,4.269.657,12.638,12.638,0,0,0,4.269-.657,3.7,3.7,0,0,0,1.128-.615c.225-.2.235-.317.235-.338s-.029-.237-.515-.546a6.577,6.577,0,0,0-2.069-.76.8.8,0,1,1,.341-1.572,8.147,8.147,0,0,1,2.591.975,2.348,2.348,0,0,1,1.262,1.9,2.074,2.074,0,0,1-.777,1.541,5.165,5.165,0,0,1-1.63.917,14.221,14.221,0,0,1-4.834.76,14.247,14.247,0,0,1-4.834-.758,5.2,5.2,0,0,1-1.63-.919,2.077,2.077,0,0,1-.777-1.541,2.35,2.35,0,0,1,1.26-1.9,8.1,8.1,0,0,1,2.593-.975.8.8,0,0,1,.958.617Z" transform="translate(-7.874 -9.104)" fill="#dd7f32" fill-rule="evenodd"/>
  </g>
</svg>
