<svg xmlns="http://www.w3.org/2000/svg" xmlns:xlink="http://www.w3.org/1999/xlink" width="18.083" height="30.541" viewBox="0 0 18.083 30.541">
  <defs>
    <clipPath id="clip-path">
      <rect id="Rectangle_52" data-name="Rectangle 52" width="18.083" height="30.541" fill="#dd7f32"/>
    </clipPath>
  </defs>
  <g id="Vin" transform="translate(0 0)">
    <g id="Group_27" data-name="Group 27" transform="translate(0 0)" clip-path="url(#clip-path)">
      <path id="Path_32" data-name="Path 32" d="M18.083,15.271A2.807,2.807,0,0,0,15.632,12.5a2.779,2.779,0,0,0,.375-1.377,2.8,2.8,0,0,0-4.889-1.88,2.8,2.8,0,0,0-1.341-.822V2.792a1.341,1.341,0,0,1,2.681,0v2.1a.736.736,0,0,0,1.472,0v-2.1a2.813,2.813,0,0,0-5.625,0V8.416a2.8,2.8,0,0,0-1.34.822,2.8,2.8,0,0,0-4.513,3.257,2.8,2.8,0,0,0,0,5.552,2.779,2.779,0,0,0-.375,1.377A2.807,2.807,0,0,0,4.528,22.2a2.777,2.777,0,0,0-.375,1.377A2.807,2.807,0,0,0,6.6,26.352a2.779,2.779,0,0,0-.375,1.377,2.813,2.813,0,0,0,5.625,0,2.779,2.779,0,0,0-.375-1.377,2.807,2.807,0,0,0,2.452-2.776,2.778,2.778,0,0,0-.375-1.377,2.778,2.778,0,0,0,2.076-4.153,2.807,2.807,0,0,0,2.452-2.775ZM13.194,9.777a1.341,1.341,0,1,1-1.34,1.34,1.342,1.342,0,0,1,1.34-1.34M11.118,13.93a1.34,1.34,0,1,1-1.341,1.34,1.342,1.342,0,0,1,1.341-1.34m-.736,5.493a1.341,1.341,0,1,1-1.341-1.341,1.342,1.342,0,0,1,1.341,1.341M9.041,9.777a1.341,1.341,0,1,1-1.34,1.34,1.342,1.342,0,0,1,1.34-1.34M8.305,15.27a1.34,1.34,0,1,1-1.34-1.34,1.342,1.342,0,0,1,1.34,1.34M4.889,9.777a1.341,1.341,0,1,1-1.34,1.34,1.342,1.342,0,0,1,1.34-1.34M1.472,15.27a1.34,1.34,0,1,1,1.34,1.34,1.342,1.342,0,0,1-1.34-1.34m2.076,4.153a1.34,1.34,0,1,1,1.34,1.34,1.342,1.342,0,0,1-1.34-1.34m3.417,5.493a1.34,1.34,0,1,1,1.34-1.34,1.342,1.342,0,0,1-1.34,1.34m2.076,4.153a1.341,1.341,0,1,1,1.341-1.34,1.342,1.342,0,0,1-1.341,1.34m2.077-4.153a1.34,1.34,0,1,1,1.34-1.34,1.342,1.342,0,0,1-1.34,1.34m2.076-4.153a1.341,1.341,0,1,1,1.34-1.34,1.342,1.342,0,0,1-1.34,1.34m2.076-4.153a1.34,1.34,0,1,1,1.34-1.34,1.342,1.342,0,0,1-1.34,1.34" fill="#dd7f32"/>
    </g>
  </g>
</svg>
